<svg width="25" height="24" viewBox="0 0 25 24" fill="none" xmlns="http://www.w3.org/2000/svg">
<path d="M18.5714 16.83L18.9614 19.99C19.0614 20.82 18.1714 21.4 17.4614 20.97L13.2714 18.48C12.8114 18.48 12.3614 18.45 11.9214 18.39C12.6614 17.52 13.1014 16.42 13.1014 15.23C13.1014 12.39 10.6414 10.09 7.60141 10.09C6.44141 10.09 5.37141 10.42 4.48141 11C4.45141 10.75 4.44141 10.5 4.44141 10.24C4.44141 5.68999 8.39141 2 13.2714 2C18.1514 2 22.1014 5.68999 22.1014 10.24C22.1014 12.94 20.7114 15.33 18.5714 16.83Z" stroke="#9CA5AC" stroke-width="1.5" stroke-linecap="round" stroke-linejoin="round"/>
<path d="M13.1016 15.2298C13.1016 16.4198 12.6616 17.5198 11.9216 18.3898C10.9316 19.5898 9.36156 20.3598 7.60156 20.3598L4.99156 21.9098C4.55156 22.1798 3.99156 21.8098 4.05156 21.2998L4.30156 19.3298C2.96156 18.3998 2.10156 16.9098 2.10156 15.2298C2.10156 13.4698 3.04157 11.9198 4.48157 10.9998C5.37157 10.4198 6.44156 10.0898 7.60156 10.0898C10.6416 10.0898 13.1016 12.3898 13.1016 15.2298Z" stroke="#9CA5AC" stroke-width="1.5" stroke-linecap="round" stroke-linejoin="round"/>
</svg>
