<svg width="25" height="24" viewBox="0 0 25 24" fill="none" xmlns="http://www.w3.org/2000/svg">
<path d="M9.65859 10.87C9.55859 10.86 9.43859 10.86 9.32859 10.87C6.94859 10.79 5.05859 8.84 5.05859 6.44C5.05859 3.99 7.03859 2 9.49859 2C11.9486 2 13.9386 3.99 13.9386 6.44C13.9286 8.84 12.0386 10.79 9.65859 10.87Z" stroke="#9CA5AC" stroke-width="1.5" stroke-linecap="round" stroke-linejoin="round"/>
<path d="M16.9112 4C18.8512 4 20.4112 5.57 20.4112 7.5C20.4112 9.39 18.9113 10.93 17.0413 11C16.9613 10.99 16.8713 10.99 16.7812 11" stroke="#9CA5AC" stroke-width="1.5" stroke-linecap="round" stroke-linejoin="round"/>
<path d="M4.65875 14.56C2.23875 16.18 2.23875 18.82 4.65875 20.43C7.40875 22.27 11.9188 22.27 14.6688 20.43C17.0888 18.81 17.0888 16.17 14.6688 14.56C11.9288 12.73 7.41875 12.73 4.65875 14.56Z" stroke="#9CA5AC" stroke-width="1.5" stroke-linecap="round" stroke-linejoin="round"/>
<path d="M18.8398 20C19.5598 19.85 20.2398 19.56 20.7998 19.13C22.3598 17.96 22.3598 16.03 20.7998 14.86C20.2498 14.44 19.5798 14.16 18.8698 14" stroke="#9CA5AC" stroke-width="1.5" stroke-linecap="round" stroke-linejoin="round"/>
</svg>
